<?xml version="1.0" encoding="utf-8" standalone="no"?>
<!DOCTYPE svg PUBLIC "-//W3C//DTD SVG 1.1//EN"
  "http://www.w3.org/Graphics/SVG/1.1/DTD/svg11.dtd">
<!-- Created with matplotlib (https://matplotlib.org/) -->
<svg height="345.6pt" version="1.1" viewBox="0 0 460.8 345.6" width="460.8pt" xmlns="http://www.w3.org/2000/svg" xmlns:xlink="http://www.w3.org/1999/xlink">
 <defs>
  <style type="text/css">
*{stroke-linecap:butt;stroke-linejoin:round;}
  </style>
 </defs>
 <g id="figure_1">
  <g id="patch_1">
   <path d="M 0 345.6 
L 460.8 345.6 
L 460.8 0 
L 0 0 
z
" style="fill:#ffffff;"/>
  </g>
  <g id="axes_1">
   <g id="patch_2">
    <path d="M 59.6 297.16 
L 452.16 297.16 
L 452.16 8.64 
L 59.6 8.64 
z
" style="fill:#ffffff;"/>
   </g>
   <g id="matplotlib.axis_1">
    <g id="xtick_1">
     <g id="line2d_1">
      <defs>
       <path d="M 0 0 
L 0 3.5 
" id="m4190ca1cd4" style="stroke:#000000;stroke-width:0.8;"/>
      </defs>
      <g>
       <use style="stroke:#000000;stroke-width:0.8;" x="116.525588" xlink:href="#m4190ca1cd4" y="297.16"/>
      </g>
     </g>
     <g id="text_1">
      <!-- 0 -->
      <defs>
       <path d="M 31.78125 66.40625 
Q 24.171875 66.40625 20.328125 58.90625 
Q 16.5 51.421875 16.5 36.375 
Q 16.5 21.390625 20.328125 13.890625 
Q 24.171875 6.390625 31.78125 6.390625 
Q 39.453125 6.390625 43.28125 13.890625 
Q 47.125 21.390625 47.125 36.375 
Q 47.125 51.421875 43.28125 58.90625 
Q 39.453125 66.40625 31.78125 66.40625 
z
M 31.78125 74.21875 
Q 44.046875 74.21875 50.515625 64.515625 
Q 56.984375 54.828125 56.984375 36.375 
Q 56.984375 17.96875 50.515625 8.265625 
Q 44.046875 -1.421875 31.78125 -1.421875 
Q 19.53125 -1.421875 13.0625 8.265625 
Q 6.59375 17.96875 6.59375 36.375 
Q 6.59375 54.828125 13.0625 64.515625 
Q 19.53125 74.21875 31.78125 74.21875 
z
" id="DejaVuSans-48"/>
      </defs>
      <g transform="translate(111.435588 316.3175)scale(0.16 -0.16)">
       <use xlink:href="#DejaVuSans-48"/>
      </g>
     </g>
    </g>
    <g id="xtick_2">
     <g id="line2d_2">
      <g>
       <use style="stroke:#000000;stroke-width:0.8;" x="200.708575" xlink:href="#m4190ca1cd4" y="297.16"/>
      </g>
     </g>
     <g id="text_2">
      <!-- 20 -->
      <defs>
       <path d="M 19.1875 8.296875 
L 53.609375 8.296875 
L 53.609375 0 
L 7.328125 0 
L 7.328125 8.296875 
Q 12.9375 14.109375 22.625 23.890625 
Q 32.328125 33.6875 34.8125 36.53125 
Q 39.546875 41.84375 41.421875 45.53125 
Q 43.3125 49.21875 43.3125 52.78125 
Q 43.3125 58.59375 39.234375 62.25 
Q 35.15625 65.921875 28.609375 65.921875 
Q 23.96875 65.921875 18.8125 64.3125 
Q 13.671875 62.703125 7.8125 59.421875 
L 7.8125 69.390625 
Q 13.765625 71.78125 18.9375 73 
Q 24.125 74.21875 28.421875 74.21875 
Q 39.75 74.21875 46.484375 68.546875 
Q 53.21875 62.890625 53.21875 53.421875 
Q 53.21875 48.921875 51.53125 44.890625 
Q 49.859375 40.875 45.40625 35.40625 
Q 44.1875 33.984375 37.640625 27.21875 
Q 31.109375 20.453125 19.1875 8.296875 
z
" id="DejaVuSans-50"/>
      </defs>
      <g transform="translate(190.528575 316.3175)scale(0.16 -0.16)">
       <use xlink:href="#DejaVuSans-50"/>
       <use x="63.623047" xlink:href="#DejaVuSans-48"/>
      </g>
     </g>
    </g>
    <g id="xtick_3">
     <g id="line2d_3">
      <g>
       <use style="stroke:#000000;stroke-width:0.8;" x="284.891562" xlink:href="#m4190ca1cd4" y="297.16"/>
      </g>
     </g>
     <g id="text_3">
      <!-- 40 -->
      <defs>
       <path d="M 37.796875 64.3125 
L 12.890625 25.390625 
L 37.796875 25.390625 
z
M 35.203125 72.90625 
L 47.609375 72.90625 
L 47.609375 25.390625 
L 58.015625 25.390625 
L 58.015625 17.1875 
L 47.609375 17.1875 
L 47.609375 0 
L 37.796875 0 
L 37.796875 17.1875 
L 4.890625 17.1875 
L 4.890625 26.703125 
z
" id="DejaVuSans-52"/>
      </defs>
      <g transform="translate(274.711562 316.3175)scale(0.16 -0.16)">
       <use xlink:href="#DejaVuSans-52"/>
       <use x="63.623047" xlink:href="#DejaVuSans-48"/>
      </g>
     </g>
    </g>
    <g id="xtick_4">
     <g id="line2d_4">
      <g>
       <use style="stroke:#000000;stroke-width:0.8;" x="369.074549" xlink:href="#m4190ca1cd4" y="297.16"/>
      </g>
     </g>
     <g id="text_4">
      <!-- 60 -->
      <defs>
       <path d="M 33.015625 40.375 
Q 26.375 40.375 22.484375 35.828125 
Q 18.609375 31.296875 18.609375 23.390625 
Q 18.609375 15.53125 22.484375 10.953125 
Q 26.375 6.390625 33.015625 6.390625 
Q 39.65625 6.390625 43.53125 10.953125 
Q 47.40625 15.53125 47.40625 23.390625 
Q 47.40625 31.296875 43.53125 35.828125 
Q 39.65625 40.375 33.015625 40.375 
z
M 52.59375 71.296875 
L 52.59375 62.3125 
Q 48.875 64.0625 45.09375 64.984375 
Q 41.3125 65.921875 37.59375 65.921875 
Q 27.828125 65.921875 22.671875 59.328125 
Q 17.53125 52.734375 16.796875 39.40625 
Q 19.671875 43.65625 24.015625 45.921875 
Q 28.375 48.1875 33.59375 48.1875 
Q 44.578125 48.1875 50.953125 41.515625 
Q 57.328125 34.859375 57.328125 23.390625 
Q 57.328125 12.15625 50.6875 5.359375 
Q 44.046875 -1.421875 33.015625 -1.421875 
Q 20.359375 -1.421875 13.671875 8.265625 
Q 6.984375 17.96875 6.984375 36.375 
Q 6.984375 53.65625 15.1875 63.9375 
Q 23.390625 74.21875 37.203125 74.21875 
Q 40.921875 74.21875 44.703125 73.484375 
Q 48.484375 72.75 52.59375 71.296875 
z
" id="DejaVuSans-54"/>
      </defs>
      <g transform="translate(358.894549 316.3175)scale(0.16 -0.16)">
       <use xlink:href="#DejaVuSans-54"/>
       <use x="63.623047" xlink:href="#DejaVuSans-48"/>
      </g>
     </g>
    </g>
    <g id="text_5">
     <!-- Aspiration pressure (mmHg) -->
     <defs>
      <path d="M 34.1875 63.1875 
L 20.796875 26.90625 
L 47.609375 26.90625 
z
M 28.609375 72.90625 
L 39.796875 72.90625 
L 67.578125 0 
L 57.328125 0 
L 50.6875 18.703125 
L 17.828125 18.703125 
L 11.1875 0 
L 0.78125 0 
z
" id="DejaVuSans-65"/>
      <path d="M 44.28125 53.078125 
L 44.28125 44.578125 
Q 40.484375 46.53125 36.375 47.5 
Q 32.28125 48.484375 27.875 48.484375 
Q 21.1875 48.484375 17.84375 46.4375 
Q 14.5 44.390625 14.5 40.28125 
Q 14.5 37.15625 16.890625 35.375 
Q 19.28125 33.59375 26.515625 31.984375 
L 29.59375 31.296875 
Q 39.15625 29.25 43.1875 25.515625 
Q 47.21875 21.78125 47.21875 15.09375 
Q 47.21875 7.46875 41.1875 3.015625 
Q 35.15625 -1.421875 24.609375 -1.421875 
Q 20.21875 -1.421875 15.453125 -0.5625 
Q 10.6875 0.296875 5.421875 2 
L 5.421875 11.28125 
Q 10.40625 8.6875 15.234375 7.390625 
Q 20.0625 6.109375 24.8125 6.109375 
Q 31.15625 6.109375 34.5625 8.28125 
Q 37.984375 10.453125 37.984375 14.40625 
Q 37.984375 18.0625 35.515625 20.015625 
Q 33.0625 21.96875 24.703125 23.78125 
L 21.578125 24.515625 
Q 13.234375 26.265625 9.515625 29.90625 
Q 5.8125 33.546875 5.8125 39.890625 
Q 5.8125 47.609375 11.28125 51.796875 
Q 16.75 56 26.8125 56 
Q 31.78125 56 36.171875 55.265625 
Q 40.578125 54.546875 44.28125 53.078125 
z
" id="DejaVuSans-115"/>
      <path d="M 18.109375 8.203125 
L 18.109375 -20.796875 
L 9.078125 -20.796875 
L 9.078125 54.6875 
L 18.109375 54.6875 
L 18.109375 46.390625 
Q 20.953125 51.265625 25.265625 53.625 
Q 29.59375 56 35.59375 56 
Q 45.5625 56 51.78125 48.09375 
Q 58.015625 40.1875 58.015625 27.296875 
Q 58.015625 14.40625 51.78125 6.484375 
Q 45.5625 -1.421875 35.59375 -1.421875 
Q 29.59375 -1.421875 25.265625 0.953125 
Q 20.953125 3.328125 18.109375 8.203125 
z
M 48.6875 27.296875 
Q 48.6875 37.203125 44.609375 42.84375 
Q 40.53125 48.484375 33.40625 48.484375 
Q 26.265625 48.484375 22.1875 42.84375 
Q 18.109375 37.203125 18.109375 27.296875 
Q 18.109375 17.390625 22.1875 11.75 
Q 26.265625 6.109375 33.40625 6.109375 
Q 40.53125 6.109375 44.609375 11.75 
Q 48.6875 17.390625 48.6875 27.296875 
z
" id="DejaVuSans-112"/>
      <path d="M 9.421875 54.6875 
L 18.40625 54.6875 
L 18.40625 0 
L 9.421875 0 
z
M 9.421875 75.984375 
L 18.40625 75.984375 
L 18.40625 64.59375 
L 9.421875 64.59375 
z
" id="DejaVuSans-105"/>
      <path d="M 41.109375 46.296875 
Q 39.59375 47.171875 37.8125 47.578125 
Q 36.03125 48 33.890625 48 
Q 26.265625 48 22.1875 43.046875 
Q 18.109375 38.09375 18.109375 28.8125 
L 18.109375 0 
L 9.078125 0 
L 9.078125 54.6875 
L 18.109375 54.6875 
L 18.109375 46.1875 
Q 20.953125 51.171875 25.484375 53.578125 
Q 30.03125 56 36.53125 56 
Q 37.453125 56 38.578125 55.875 
Q 39.703125 55.765625 41.0625 55.515625 
z
" id="DejaVuSans-114"/>
      <path d="M 34.28125 27.484375 
Q 23.390625 27.484375 19.1875 25 
Q 14.984375 22.515625 14.984375 16.5 
Q 14.984375 11.71875 18.140625 8.90625 
Q 21.296875 6.109375 26.703125 6.109375 
Q 34.1875 6.109375 38.703125 11.40625 
Q 43.21875 16.703125 43.21875 25.484375 
L 43.21875 27.484375 
z
M 52.203125 31.203125 
L 52.203125 0 
L 43.21875 0 
L 43.21875 8.296875 
Q 40.140625 3.328125 35.546875 0.953125 
Q 30.953125 -1.421875 24.3125 -1.421875 
Q 15.921875 -1.421875 10.953125 3.296875 
Q 6 8.015625 6 15.921875 
Q 6 25.140625 12.171875 29.828125 
Q 18.359375 34.515625 30.609375 34.515625 
L 43.21875 34.515625 
L 43.21875 35.40625 
Q 43.21875 41.609375 39.140625 45 
Q 35.0625 48.390625 27.6875 48.390625 
Q 23 48.390625 18.546875 47.265625 
Q 14.109375 46.140625 10.015625 43.890625 
L 10.015625 52.203125 
Q 14.9375 54.109375 19.578125 55.046875 
Q 24.21875 56 28.609375 56 
Q 40.484375 56 46.34375 49.84375 
Q 52.203125 43.703125 52.203125 31.203125 
z
" id="DejaVuSans-97"/>
      <path d="M 18.3125 70.21875 
L 18.3125 54.6875 
L 36.8125 54.6875 
L 36.8125 47.703125 
L 18.3125 47.703125 
L 18.3125 18.015625 
Q 18.3125 11.328125 20.140625 9.421875 
Q 21.96875 7.515625 27.59375 7.515625 
L 36.8125 7.515625 
L 36.8125 0 
L 27.59375 0 
Q 17.1875 0 13.234375 3.875 
Q 9.28125 7.765625 9.28125 18.015625 
L 9.28125 47.703125 
L 2.6875 47.703125 
L 2.6875 54.6875 
L 9.28125 54.6875 
L 9.28125 70.21875 
z
" id="DejaVuSans-116"/>
      <path d="M 30.609375 48.390625 
Q 23.390625 48.390625 19.1875 42.75 
Q 14.984375 37.109375 14.984375 27.296875 
Q 14.984375 17.484375 19.15625 11.84375 
Q 23.34375 6.203125 30.609375 6.203125 
Q 37.796875 6.203125 41.984375 11.859375 
Q 46.1875 17.53125 46.1875 27.296875 
Q 46.1875 37.015625 41.984375 42.703125 
Q 37.796875 48.390625 30.609375 48.390625 
z
M 30.609375 56 
Q 42.328125 56 49.015625 48.375 
Q 55.71875 40.765625 55.71875 27.296875 
Q 55.71875 13.875 49.015625 6.21875 
Q 42.328125 -1.421875 30.609375 -1.421875 
Q 18.84375 -1.421875 12.171875 6.21875 
Q 5.515625 13.875 5.515625 27.296875 
Q 5.515625 40.765625 12.171875 48.375 
Q 18.84375 56 30.609375 56 
z
" id="DejaVuSans-111"/>
      <path d="M 54.890625 33.015625 
L 54.890625 0 
L 45.90625 0 
L 45.90625 32.71875 
Q 45.90625 40.484375 42.875 44.328125 
Q 39.84375 48.1875 33.796875 48.1875 
Q 26.515625 48.1875 22.3125 43.546875 
Q 18.109375 38.921875 18.109375 30.90625 
L 18.109375 0 
L 9.078125 0 
L 9.078125 54.6875 
L 18.109375 54.6875 
L 18.109375 46.1875 
Q 21.34375 51.125 25.703125 53.5625 
Q 30.078125 56 35.796875 56 
Q 45.21875 56 50.046875 50.171875 
Q 54.890625 44.34375 54.890625 33.015625 
z
" id="DejaVuSans-110"/>
      <path id="DejaVuSans-32"/>
      <path d="M 56.203125 29.59375 
L 56.203125 25.203125 
L 14.890625 25.203125 
Q 15.484375 15.921875 20.484375 11.0625 
Q 25.484375 6.203125 34.421875 6.203125 
Q 39.59375 6.203125 44.453125 7.46875 
Q 49.3125 8.734375 54.109375 11.28125 
L 54.109375 2.78125 
Q 49.265625 0.734375 44.1875 -0.34375 
Q 39.109375 -1.421875 33.890625 -1.421875 
Q 20.796875 -1.421875 13.15625 6.1875 
Q 5.515625 13.8125 5.515625 26.8125 
Q 5.515625 40.234375 12.765625 48.109375 
Q 20.015625 56 32.328125 56 
Q 43.359375 56 49.78125 48.890625 
Q 56.203125 41.796875 56.203125 29.59375 
z
M 47.21875 32.234375 
Q 47.125 39.59375 43.09375 43.984375 
Q 39.0625 48.390625 32.421875 48.390625 
Q 24.90625 48.390625 20.390625 44.140625 
Q 15.875 39.890625 15.1875 32.171875 
z
" id="DejaVuSans-101"/>
      <path d="M 8.5 21.578125 
L 8.5 54.6875 
L 17.484375 54.6875 
L 17.484375 21.921875 
Q 17.484375 14.15625 20.5 10.265625 
Q 23.53125 6.390625 29.59375 6.390625 
Q 36.859375 6.390625 41.078125 11.03125 
Q 45.3125 15.671875 45.3125 23.6875 
L 45.3125 54.6875 
L 54.296875 54.6875 
L 54.296875 0 
L 45.3125 0 
L 45.3125 8.40625 
Q 42.046875 3.421875 37.71875 1 
Q 33.40625 -1.421875 27.6875 -1.421875 
Q 18.265625 -1.421875 13.375 4.4375 
Q 8.5 10.296875 8.5 21.578125 
z
M 31.109375 56 
z
" id="DejaVuSans-117"/>
      <path d="M 31 75.875 
Q 24.46875 64.65625 21.28125 53.65625 
Q 18.109375 42.671875 18.109375 31.390625 
Q 18.109375 20.125 21.3125 9.0625 
Q 24.515625 -2 31 -13.1875 
L 23.1875 -13.1875 
Q 15.875 -1.703125 12.234375 9.375 
Q 8.59375 20.453125 8.59375 31.390625 
Q 8.59375 42.28125 12.203125 53.3125 
Q 15.828125 64.359375 23.1875 75.875 
z
" id="DejaVuSans-40"/>
      <path d="M 52 44.1875 
Q 55.375 50.25 60.0625 53.125 
Q 64.75 56 71.09375 56 
Q 79.640625 56 84.28125 50.015625 
Q 88.921875 44.046875 88.921875 33.015625 
L 88.921875 0 
L 79.890625 0 
L 79.890625 32.71875 
Q 79.890625 40.578125 77.09375 44.375 
Q 74.3125 48.1875 68.609375 48.1875 
Q 61.625 48.1875 57.5625 43.546875 
Q 53.515625 38.921875 53.515625 30.90625 
L 53.515625 0 
L 44.484375 0 
L 44.484375 32.71875 
Q 44.484375 40.625 41.703125 44.40625 
Q 38.921875 48.1875 33.109375 48.1875 
Q 26.21875 48.1875 22.15625 43.53125 
Q 18.109375 38.875 18.109375 30.90625 
L 18.109375 0 
L 9.078125 0 
L 9.078125 54.6875 
L 18.109375 54.6875 
L 18.109375 46.1875 
Q 21.1875 51.21875 25.484375 53.609375 
Q 29.78125 56 35.6875 56 
Q 41.65625 56 45.828125 52.96875 
Q 50 49.953125 52 44.1875 
z
" id="DejaVuSans-109"/>
      <path d="M 9.8125 72.90625 
L 19.671875 72.90625 
L 19.671875 43.015625 
L 55.515625 43.015625 
L 55.515625 72.90625 
L 65.375 72.90625 
L 65.375 0 
L 55.515625 0 
L 55.515625 34.71875 
L 19.671875 34.71875 
L 19.671875 0 
L 9.8125 0 
z
" id="DejaVuSans-72"/>
      <path d="M 45.40625 27.984375 
Q 45.40625 37.75 41.375 43.109375 
Q 37.359375 48.484375 30.078125 48.484375 
Q 22.859375 48.484375 18.828125 43.109375 
Q 14.796875 37.75 14.796875 27.984375 
Q 14.796875 18.265625 18.828125 12.890625 
Q 22.859375 7.515625 30.078125 7.515625 
Q 37.359375 7.515625 41.375 12.890625 
Q 45.40625 18.265625 45.40625 27.984375 
z
M 54.390625 6.78125 
Q 54.390625 -7.171875 48.1875 -13.984375 
Q 42 -20.796875 29.203125 -20.796875 
Q 24.46875 -20.796875 20.265625 -20.09375 
Q 16.0625 -19.390625 12.109375 -17.921875 
L 12.109375 -9.1875 
Q 16.0625 -11.328125 19.921875 -12.34375 
Q 23.78125 -13.375 27.78125 -13.375 
Q 36.625 -13.375 41.015625 -8.765625 
Q 45.40625 -4.15625 45.40625 5.171875 
L 45.40625 9.625 
Q 42.625 4.78125 38.28125 2.390625 
Q 33.9375 0 27.875 0 
Q 17.828125 0 11.671875 7.65625 
Q 5.515625 15.328125 5.515625 27.984375 
Q 5.515625 40.671875 11.671875 48.328125 
Q 17.828125 56 27.875 56 
Q 33.9375 56 38.28125 53.609375 
Q 42.625 51.21875 45.40625 46.390625 
L 45.40625 54.6875 
L 54.390625 54.6875 
z
" id="DejaVuSans-103"/>
      <path d="M 8.015625 75.875 
L 15.828125 75.875 
Q 23.140625 64.359375 26.78125 53.3125 
Q 30.421875 42.28125 30.421875 31.390625 
Q 30.421875 20.453125 26.78125 9.375 
Q 23.140625 -1.703125 15.828125 -13.1875 
L 8.015625 -13.1875 
Q 14.5 -2 17.703125 9.0625 
Q 20.90625 20.125 20.90625 31.390625 
Q 20.90625 42.671875 17.703125 53.65625 
Q 14.5 64.65625 8.015625 75.875 
z
" id="DejaVuSans-41"/>
     </defs>
     <g transform="translate(142.87 335.8025)scale(0.16 -0.16)">
      <use xlink:href="#DejaVuSans-65"/>
      <use x="68.408203" xlink:href="#DejaVuSans-115"/>
      <use x="120.507812" xlink:href="#DejaVuSans-112"/>
      <use x="183.984375" xlink:href="#DejaVuSans-105"/>
      <use x="211.767578" xlink:href="#DejaVuSans-114"/>
      <use x="252.880859" xlink:href="#DejaVuSans-97"/>
      <use x="314.160156" xlink:href="#DejaVuSans-116"/>
      <use x="353.369141" xlink:href="#DejaVuSans-105"/>
      <use x="381.152344" xlink:href="#DejaVuSans-111"/>
      <use x="442.333984" xlink:href="#DejaVuSans-110"/>
      <use x="505.712891" xlink:href="#DejaVuSans-32"/>
      <use x="537.5" xlink:href="#DejaVuSans-112"/>
      <use x="600.976562" xlink:href="#DejaVuSans-114"/>
      <use x="639.839844" xlink:href="#DejaVuSans-101"/>
      <use x="701.363281" xlink:href="#DejaVuSans-115"/>
      <use x="753.462891" xlink:href="#DejaVuSans-115"/>
      <use x="805.5625" xlink:href="#DejaVuSans-117"/>
      <use x="868.941406" xlink:href="#DejaVuSans-114"/>
      <use x="907.804688" xlink:href="#DejaVuSans-101"/>
      <use x="969.328125" xlink:href="#DejaVuSans-32"/>
      <use x="1001.115234" xlink:href="#DejaVuSans-40"/>
      <use x="1040.128906" xlink:href="#DejaVuSans-109"/>
      <use x="1137.541016" xlink:href="#DejaVuSans-109"/>
      <use x="1234.953125" xlink:href="#DejaVuSans-72"/>
      <use x="1310.148438" xlink:href="#DejaVuSans-103"/>
      <use x="1373.625" xlink:href="#DejaVuSans-41"/>
     </g>
    </g>
   </g>
   <g id="matplotlib.axis_2">
    <g id="ytick_1">
     <g id="line2d_5">
      <defs>
       <path d="M 0 0 
L -3.5 0 
" id="m804cb9d722" style="stroke:#000000;stroke-width:0.8;"/>
      </defs>
      <g>
       <use style="stroke:#000000;stroke-width:0.8;" x="59.6" xlink:href="#m804cb9d722" y="284.045455"/>
      </g>
     </g>
     <g id="text_6">
      <!-- 0.0 -->
      <defs>
       <path d="M 10.6875 12.40625 
L 21 12.40625 
L 21 0 
L 10.6875 0 
z
" id="DejaVuSans-46"/>
      </defs>
      <g transform="translate(27.155 290.124205)scale(0.16 -0.16)">
       <use xlink:href="#DejaVuSans-48"/>
       <use x="63.623047" xlink:href="#DejaVuSans-46"/>
       <use x="95.410156" xlink:href="#DejaVuSans-48"/>
      </g>
     </g>
    </g>
    <g id="ytick_2">
     <g id="line2d_6">
      <g>
       <use style="stroke:#000000;stroke-width:0.8;" x="59.6" xlink:href="#m804cb9d722" y="231.564289"/>
      </g>
     </g>
     <g id="text_7">
      <!-- 0.2 -->
      <g transform="translate(27.155 237.643039)scale(0.16 -0.16)">
       <use xlink:href="#DejaVuSans-48"/>
       <use x="63.623047" xlink:href="#DejaVuSans-46"/>
       <use x="95.410156" xlink:href="#DejaVuSans-50"/>
      </g>
     </g>
    </g>
    <g id="ytick_3">
     <g id="line2d_7">
      <g>
       <use style="stroke:#000000;stroke-width:0.8;" x="59.6" xlink:href="#m804cb9d722" y="179.083123"/>
      </g>
     </g>
     <g id="text_8">
      <!-- 0.4 -->
      <g transform="translate(27.155 185.161873)scale(0.16 -0.16)">
       <use xlink:href="#DejaVuSans-48"/>
       <use x="63.623047" xlink:href="#DejaVuSans-46"/>
       <use x="95.410156" xlink:href="#DejaVuSans-52"/>
      </g>
     </g>
    </g>
    <g id="ytick_4">
     <g id="line2d_8">
      <g>
       <use style="stroke:#000000;stroke-width:0.8;" x="59.6" xlink:href="#m804cb9d722" y="126.601957"/>
      </g>
     </g>
     <g id="text_9">
      <!-- 0.6 -->
      <g transform="translate(27.155 132.680707)scale(0.16 -0.16)">
       <use xlink:href="#DejaVuSans-48"/>
       <use x="63.623047" xlink:href="#DejaVuSans-46"/>
       <use x="95.410156" xlink:href="#DejaVuSans-54"/>
      </g>
     </g>
    </g>
    <g id="ytick_5">
     <g id="line2d_9">
      <g>
       <use style="stroke:#000000;stroke-width:0.8;" x="59.6" xlink:href="#m804cb9d722" y="74.120791"/>
      </g>
     </g>
     <g id="text_10">
      <!-- 0.8 -->
      <defs>
       <path d="M 31.78125 34.625 
Q 24.75 34.625 20.71875 30.859375 
Q 16.703125 27.09375 16.703125 20.515625 
Q 16.703125 13.921875 20.71875 10.15625 
Q 24.75 6.390625 31.78125 6.390625 
Q 38.8125 6.390625 42.859375 10.171875 
Q 46.921875 13.96875 46.921875 20.515625 
Q 46.921875 27.09375 42.890625 30.859375 
Q 38.875 34.625 31.78125 34.625 
z
M 21.921875 38.8125 
Q 15.578125 40.375 12.03125 44.71875 
Q 8.5 49.078125 8.5 55.328125 
Q 8.5 64.0625 14.71875 69.140625 
Q 20.953125 74.21875 31.78125 74.21875 
Q 42.671875 74.21875 48.875 69.140625 
Q 55.078125 64.0625 55.078125 55.328125 
Q 55.078125 49.078125 51.53125 44.71875 
Q 48 40.375 41.703125 38.8125 
Q 48.828125 37.15625 52.796875 32.3125 
Q 56.78125 27.484375 56.78125 20.515625 
Q 56.78125 9.90625 50.3125 4.234375 
Q 43.84375 -1.421875 31.78125 -1.421875 
Q 19.734375 -1.421875 13.25 4.234375 
Q 6.78125 9.90625 6.78125 20.515625 
Q 6.78125 27.484375 10.78125 32.3125 
Q 14.796875 37.15625 21.921875 38.8125 
z
M 18.3125 54.390625 
Q 18.3125 48.734375 21.84375 45.5625 
Q 25.390625 42.390625 31.78125 42.390625 
Q 38.140625 42.390625 41.71875 45.5625 
Q 45.3125 48.734375 45.3125 54.390625 
Q 45.3125 60.0625 41.71875 63.234375 
Q 38.140625 66.40625 31.78125 66.40625 
Q 25.390625 66.40625 21.84375 63.234375 
Q 18.3125 60.0625 18.3125 54.390625 
z
" id="DejaVuSans-56"/>
      </defs>
      <g transform="translate(27.155 80.199541)scale(0.16 -0.16)">
       <use xlink:href="#DejaVuSans-48"/>
       <use x="63.623047" xlink:href="#DejaVuSans-46"/>
       <use x="95.410156" xlink:href="#DejaVuSans-56"/>
      </g>
     </g>
    </g>
    <g id="ytick_6">
     <g id="line2d_10">
      <g>
       <use style="stroke:#000000;stroke-width:0.8;" x="59.6" xlink:href="#m804cb9d722" y="21.639625"/>
      </g>
     </g>
     <g id="text_11">
      <!-- 1.0 -->
      <defs>
       <path d="M 12.40625 8.296875 
L 28.515625 8.296875 
L 28.515625 63.921875 
L 10.984375 60.40625 
L 10.984375 69.390625 
L 28.421875 72.90625 
L 38.28125 72.90625 
L 38.28125 8.296875 
L 54.390625 8.296875 
L 54.390625 0 
L 12.40625 0 
z
" id="DejaVuSans-49"/>
      </defs>
      <g transform="translate(27.155 27.718375)scale(0.16 -0.16)">
       <use xlink:href="#DejaVuSans-49"/>
       <use x="63.623047" xlink:href="#DejaVuSans-46"/>
       <use x="95.410156" xlink:href="#DejaVuSans-48"/>
      </g>
     </g>
    </g>
    <g id="text_12">
     <!-- Opening probability -->
     <defs>
      <path d="M 39.40625 66.21875 
Q 28.65625 66.21875 22.328125 58.203125 
Q 16.015625 50.203125 16.015625 36.375 
Q 16.015625 22.609375 22.328125 14.59375 
Q 28.65625 6.59375 39.40625 6.59375 
Q 50.140625 6.59375 56.421875 14.59375 
Q 62.703125 22.609375 62.703125 36.375 
Q 62.703125 50.203125 56.421875 58.203125 
Q 50.140625 66.21875 39.40625 66.21875 
z
M 39.40625 74.21875 
Q 54.734375 74.21875 63.90625 63.9375 
Q 73.09375 53.65625 73.09375 36.375 
Q 73.09375 19.140625 63.90625 8.859375 
Q 54.734375 -1.421875 39.40625 -1.421875 
Q 24.03125 -1.421875 14.8125 8.828125 
Q 5.609375 19.09375 5.609375 36.375 
Q 5.609375 53.65625 14.8125 63.9375 
Q 24.03125 74.21875 39.40625 74.21875 
z
" id="DejaVuSans-79"/>
      <path d="M 48.6875 27.296875 
Q 48.6875 37.203125 44.609375 42.84375 
Q 40.53125 48.484375 33.40625 48.484375 
Q 26.265625 48.484375 22.1875 42.84375 
Q 18.109375 37.203125 18.109375 27.296875 
Q 18.109375 17.390625 22.1875 11.75 
Q 26.265625 6.109375 33.40625 6.109375 
Q 40.53125 6.109375 44.609375 11.75 
Q 48.6875 17.390625 48.6875 27.296875 
z
M 18.109375 46.390625 
Q 20.953125 51.265625 25.265625 53.625 
Q 29.59375 56 35.59375 56 
Q 45.5625 56 51.78125 48.09375 
Q 58.015625 40.1875 58.015625 27.296875 
Q 58.015625 14.40625 51.78125 6.484375 
Q 45.5625 -1.421875 35.59375 -1.421875 
Q 29.59375 -1.421875 25.265625 0.953125 
Q 20.953125 3.328125 18.109375 8.203125 
L 18.109375 0 
L 9.078125 0 
L 9.078125 75.984375 
L 18.109375 75.984375 
z
" id="DejaVuSans-98"/>
      <path d="M 9.421875 75.984375 
L 18.40625 75.984375 
L 18.40625 0 
L 9.421875 0 
z
" id="DejaVuSans-108"/>
      <path d="M 32.171875 -5.078125 
Q 28.375 -14.84375 24.75 -17.8125 
Q 21.140625 -20.796875 15.09375 -20.796875 
L 7.90625 -20.796875 
L 7.90625 -13.28125 
L 13.1875 -13.28125 
Q 16.890625 -13.28125 18.9375 -11.515625 
Q 21 -9.765625 23.484375 -3.21875 
L 25.09375 0.875 
L 2.984375 54.6875 
L 12.5 54.6875 
L 29.59375 11.921875 
L 46.6875 54.6875 
L 56.203125 54.6875 
z
" id="DejaVuSans-121"/>
     </defs>
     <g transform="translate(19.8275 231.86375)rotate(-90)scale(0.16 -0.16)">
      <use xlink:href="#DejaVuSans-79"/>
      <use x="78.710938" xlink:href="#DejaVuSans-112"/>
      <use x="142.1875" xlink:href="#DejaVuSans-101"/>
      <use x="203.710938" xlink:href="#DejaVuSans-110"/>
      <use x="267.089844" xlink:href="#DejaVuSans-105"/>
      <use x="294.873047" xlink:href="#DejaVuSans-110"/>
      <use x="358.251953" xlink:href="#DejaVuSans-103"/>
      <use x="421.728516" xlink:href="#DejaVuSans-32"/>
      <use x="453.515625" xlink:href="#DejaVuSans-112"/>
      <use x="516.992188" xlink:href="#DejaVuSans-114"/>
      <use x="555.855469" xlink:href="#DejaVuSans-111"/>
      <use x="617.037109" xlink:href="#DejaVuSans-98"/>
      <use x="680.513672" xlink:href="#DejaVuSans-97"/>
      <use x="741.792969" xlink:href="#DejaVuSans-98"/>
      <use x="805.269531" xlink:href="#DejaVuSans-105"/>
      <use x="833.052734" xlink:href="#DejaVuSans-108"/>
      <use x="860.835938" xlink:href="#DejaVuSans-105"/>
      <use x="888.619141" xlink:href="#DejaVuSans-116"/>
      <use x="927.828125" xlink:href="#DejaVuSans-121"/>
     </g>
    </g>
   </g>
   <g id="line2d_11">
    <defs>
     <path d="M 0 3 
C 0.795609 3 1.55874 2.683901 2.12132 2.12132 
C 2.683901 1.55874 3 0.795609 3 0 
C 3 -0.795609 2.683901 -1.55874 2.12132 -2.12132 
C 1.55874 -2.683901 0.795609 -3 0 -3 
C -0.795609 -3 -1.55874 -2.683901 -2.12132 -2.12132 
C -2.683901 -1.55874 -3 -0.795609 -3 0 
C -3 0.795609 -2.683901 1.55874 -2.12132 2.12132 
C -1.55874 2.683901 -0.795609 3 0 3 
z
" id="m9c2e747460" style="stroke:#377eb8;"/>
    </defs>
    <g clip-path="url(#pb8b2c004a7)">
     <use style="fill:#377eb8;stroke:#377eb8;" x="119.53513" xlink:href="#m9c2e747460" y="279.741999"/>
     <use style="fill:#377eb8;stroke:#377eb8;" x="159.879826" xlink:href="#m9c2e747460" y="232.351506"/>
     <use style="fill:#377eb8;stroke:#377eb8;" x="179.662828" xlink:href="#m9c2e747460" y="162.813961"/>
     <use style="fill:#377eb8;stroke:#377eb8;" x="201.97132" xlink:href="#m9c2e747460" y="147.856829"/>
     <use style="fill:#377eb8;stroke:#377eb8;" x="219.228832" xlink:href="#m9c2e747460" y="94.850851"/>
     <use style="fill:#377eb8;stroke:#377eb8;" x="244.062813" xlink:href="#m9c2e747460" y="31.611046"/>
    </g>
   </g>
   <g id="line2d_12">
    <path clip-path="url(#pb8b2c004a7)" d="M 77.443636 281.525442 
L 79.551825 281.304091 
L 81.660014 281.063521 
L 83.768202 280.802103 
L 85.876391 280.518078 
L 87.984579 280.20955 
L 90.092768 279.87447 
L 92.200956 279.510632 
L 94.309145 279.115664 
L 96.417334 278.687009 
L 98.525522 278.221925 
L 100.633711 277.717468 
L 102.741899 277.170484 
L 104.850088 276.577598 
L 106.958277 275.935205 
L 109.066465 275.239462 
L 111.174654 274.486277 
L 113.282842 273.671308 
L 115.391031 272.789951 
L 117.49922 271.837343 
L 119.607408 270.808361 
L 121.715597 269.697622 
L 123.823785 268.499496 
L 125.931974 267.20811 
L 128.040162 265.817372 
L 130.148351 264.320987 
L 132.25654 262.712493 
L 134.364728 260.985294 
L 136.472917 259.132704 
L 138.581105 257.148009 
L 140.689294 255.024522 
L 142.797483 252.755664 
L 144.905671 250.335048 
L 147.01386 247.756573 
L 149.122048 245.014533 
L 151.230237 242.103732 
L 153.338426 239.019609 
L 155.446614 235.758372 
L 157.554803 232.317132 
L 159.662991 228.694045 
L 161.77118 224.88845 
L 163.879369 220.901002 
L 165.987557 216.733792 
L 168.095746 212.390465 
L 170.203934 207.876299 
L 172.312123 203.198281 
L 174.420311 198.365135 
L 176.5285 193.38733 
L 178.636689 188.277046 
L 180.744877 183.048097 
L 182.853066 177.715822 
L 184.961254 172.296932 
L 187.069443 166.809318 
L 189.177632 161.271829 
L 191.28582 155.704019 
L 193.394009 150.12588 
L 195.502197 144.557548 
L 197.610386 139.019021 
L 199.718575 133.52987 
L 201.826763 128.108964 
L 203.934952 122.774223 
L 206.04314 117.54239 
L 208.151329 112.428843 
L 210.259517 107.447436 
L 212.367706 102.610394 
L 214.475895 97.928229 
L 216.584083 93.409712 
L 218.692272 89.061874 
L 220.80046 84.890038 
L 222.908649 80.897888 
L 225.016838 77.087556 
L 227.125026 73.459733 
L 229.233215 70.013789 
L 231.341403 66.747909 
L 233.449592 63.659231 
L 235.557781 60.743984 
L 237.665969 57.997624 
L 239.774158 55.414972 
L 241.882346 52.990332 
L 243.990535 50.717612 
L 246.098723 48.590433 
L 248.206912 46.602217 
L 250.315101 44.746282 
L 252.423289 43.015911 
L 254.531478 41.404418 
L 256.639666 39.905205 
L 258.747855 38.511803 
L 260.856044 37.217915 
L 262.964232 36.017442 
L 265.072421 34.904507 
L 267.180609 33.87347 
L 269.288798 32.918945 
L 271.396987 32.0358 
L 273.505175 31.219166 
L 275.613364 30.464433 
L 277.721552 29.767251 
L 279.829741 29.123522 
L 281.937929 28.529397 
L 284.046118 27.981265 
L 286.154307 27.475744 
" style="fill:none;stroke:#377eb8;stroke-dasharray:1.5,2.475;stroke-dashoffset:0;stroke-width:1.5;"/>
   </g>
   <g id="line2d_13">
    <defs>
     <path d="M 0 3 
C 0.795609 3 1.55874 2.683901 2.12132 2.12132 
C 2.683901 1.55874 3 0.795609 3 0 
C 3 -0.795609 2.683901 -1.55874 2.12132 -2.12132 
C 1.55874 -2.683901 0.795609 -3 0 -3 
C -0.795609 -3 -1.55874 -2.683901 -2.12132 -2.12132 
C -2.683901 -1.55874 -3 -0.795609 -3 0 
C -3 0.795609 -2.683901 1.55874 -2.12132 2.12132 
C -1.55874 2.683901 -0.795609 3 0 3 
z
" id="m5d1492c8b9" style="stroke:#ff7f00;"/>
    </defs>
    <g clip-path="url(#pb8b2c004a7)">
     <use style="fill:#ff7f00;stroke:#ff7f00;" x="137.613426" xlink:href="#m5d1492c8b9" y="284.045455"/>
     <use style="fill:#ff7f00;stroke:#ff7f00;" x="158.617081" xlink:href="#m5d1492c8b9" y="284.045455"/>
     <use style="fill:#ff7f00;stroke:#ff7f00;" x="179.241913" xlink:href="#m5d1492c8b9" y="284.045455"/>
     <use style="fill:#ff7f00;stroke:#ff7f00;" x="201.12949" xlink:href="#m5d1492c8b9" y="274.126514"/>
     <use style="fill:#ff7f00;stroke:#ff7f00;" x="222.596152" xlink:href="#m5d1492c8b9" y="253.081567"/>
     <use style="fill:#ff7f00;stroke:#ff7f00;" x="243.641898" xlink:href="#m5d1492c8b9" y="179.083123"/>
     <use style="fill:#ff7f00;stroke:#ff7f00;" x="265.10856" xlink:href="#m5d1492c8b9" y="91.439576"/>
     <use style="fill:#ff7f00;stroke:#ff7f00;" x="285.312477" xlink:href="#m5d1492c8b9" y="34.759916"/>
    </g>
   </g>
   <g id="line2d_14">
    <path clip-path="url(#pb8b2c004a7)" d="M 95.521933 284.041486 
L 97.864176 284.040757 
L 100.206418 284.039895 
L 102.548661 284.038874 
L 104.890904 284.037667 
L 107.233147 284.036237 
L 109.57539 284.034545 
L 111.917632 284.032543 
L 114.259875 284.030173 
L 116.602118 284.027368 
L 118.944361 284.024049 
L 121.286604 284.02012 
L 123.628846 284.01547 
L 125.971089 284.009968 
L 128.313332 284.003455 
L 130.655575 283.995747 
L 132.997818 283.986625 
L 135.34006 283.97583 
L 137.682303 283.963054 
L 140.024546 283.947935 
L 142.366789 283.930043 
L 144.709032 283.90887 
L 147.051274 283.883815 
L 149.393517 283.854168 
L 151.73576 283.819087 
L 154.078003 283.777579 
L 156.420246 283.728469 
L 158.762488 283.670369 
L 161.104731 283.601637 
L 163.446974 283.520337 
L 165.789217 283.424178 
L 168.13146 283.310461 
L 170.473702 283.175998 
L 172.815945 283.017033 
L 175.158188 282.829139 
L 177.500431 282.607106 
L 179.842674 282.344804 
L 182.184916 282.035038 
L 184.527159 281.669363 
L 186.869402 281.237892 
L 189.211645 280.72907 
L 191.553888 280.129425 
L 193.896131 279.42329 
L 196.238373 278.592511 
L 198.580616 277.616134 
L 200.922859 276.470087 
L 203.265102 275.12687 
L 205.607345 273.555286 
L 207.949587 271.720232 
L 210.29183 269.582601 
L 212.634073 267.09935 
L 214.976316 264.223815 
L 217.318559 260.906336 
L 219.660801 257.095306 
L 222.003044 252.738726 
L 224.345287 247.786342 
L 226.68753 242.192424 
L 229.029773 235.919155 
L 231.372015 228.940528 
L 233.714258 221.246526 
L 236.056501 212.847214 
L 238.398744 203.776262 
L 240.740987 194.093312 
L 243.083229 183.884641 
L 245.425472 173.261658 
L 247.767715 162.357041 
L 250.109958 151.318661 
L 252.452201 140.301815 
L 254.794443 129.460594 
L 257.136686 118.939398 
L 259.478929 108.86556 
L 261.821172 99.343845 
L 264.163415 90.453238 
L 266.505657 82.246075 
L 268.8479 74.74922 
L 271.190143 67.966815 
L 273.532386 61.884015 
L 275.874629 56.471147 
L 278.216871 51.68784 
L 280.559114 47.486804 
L 282.901357 43.817055 
L 285.2436 40.626513 
L 287.585843 37.863977 
L 289.928085 35.480526 
L 292.270328 33.430449 
L 294.612571 31.671768 
L 296.954814 30.166481 
L 299.297057 28.880576 
L 301.639299 27.783901 
L 303.981542 26.849931 
L 306.323785 26.055484 
L 308.666028 25.380409 
L 311.008271 24.80727 
L 313.350513 24.321032 
L 315.692756 23.90878 
L 318.034999 23.559441 
L 320.377242 23.263547 
L 322.719485 23.013018 
L 325.061727 22.800966 
L 327.40397 22.621533 
" style="fill:none;stroke:#ff7f00;stroke-dasharray:1.5,2.475;stroke-dashoffset:0;stroke-width:1.5;"/>
   </g>
   <g id="line2d_15">
    <defs>
     <path d="M 0 3 
C 0.795609 3 1.55874 2.683901 2.12132 2.12132 
C 2.683901 1.55874 3 0.795609 3 0 
C 3 -0.795609 2.683901 -1.55874 2.12132 -2.12132 
C 1.55874 -2.683901 0.795609 -3 0 -3 
C -0.795609 -3 -1.55874 -2.683901 -2.12132 -2.12132 
C -2.683901 -1.55874 -3 -0.795609 -3 0 
C -3 0.795609 -2.683901 1.55874 -2.12132 2.12132 
C -1.55874 2.683901 -0.795609 3 0 3 
z
" id="ma4fd277233" style="stroke:#4daf4a;"/>
    </defs>
    <g clip-path="url(#pb8b2c004a7)">
     <use style="fill:#4daf4a;stroke:#4daf4a;" x="328.2458" xlink:href="#ma4fd277233" y="282.612719"/>
     <use style="fill:#4daf4a;stroke:#4daf4a;" x="348.449717" xlink:href="#ma4fd277233" y="277.590271"/>
     <use style="fill:#4daf4a;stroke:#4daf4a;" x="369.074549" xlink:href="#ma4fd277233" y="255.968031"/>
     <use style="fill:#4daf4a;stroke:#4daf4a;" x="392.22487" xlink:href="#ma4fd277233" y="73.858385"/>
    </g>
   </g>
   <g id="line2d_16">
    <path clip-path="url(#pb8b2c004a7)" d="M 286.154307 284.045335 
L 287.650893 284.045304 
L 289.14748 284.045266 
L 290.644066 284.045219 
L 292.140652 284.045159 
L 293.637239 284.045084 
L 295.133825 284.04499 
L 296.630412 284.044873 
L 298.126998 284.044726 
L 299.623585 284.044541 
L 301.120171 284.04431 
L 302.616757 284.04402 
L 304.113344 284.043658 
L 305.60993 284.043203 
L 307.106517 284.042633 
L 308.603103 284.041919 
L 310.09969 284.041025 
L 311.596276 284.039904 
L 313.092862 284.038499 
L 314.589449 284.036739 
L 316.086035 284.034534 
L 317.582622 284.031771 
L 319.079208 284.028309 
L 320.575795 284.023971 
L 322.072381 284.018535 
L 323.568968 284.011725 
L 325.065554 284.003191 
L 326.56214 283.992499 
L 328.058727 283.979103 
L 329.555313 283.962319 
L 331.0519 283.941291 
L 332.548486 283.914947 
L 334.045073 283.881945 
L 335.541659 283.840604 
L 337.038245 283.78882 
L 338.534832 283.723962 
L 340.031418 283.642737 
L 341.528005 283.541031 
L 343.024591 283.413702 
L 344.521178 283.254328 
L 346.017764 283.0549 
L 347.51435 282.80544 
L 349.010937 282.493528 
L 350.507523 282.103741 
L 352.00411 281.616965 
L 353.500696 281.009581 
L 354.997283 280.252501 
L 356.493869 279.310069 
L 357.990456 278.138819 
L 359.487042 276.686148 
L 360.983628 274.888961 
L 362.480215 272.672462 
L 363.976801 269.949282 
L 365.473388 266.61932 
L 366.969974 262.570748 
L 368.466561 257.6828 
L 369.963147 251.831044 
L 371.459733 244.895803 
L 372.95632 236.774123 
L 374.452906 227.395109 
L 375.949493 216.737425 
L 377.446079 204.846476 
L 378.942666 191.847556 
L 380.439252 177.950637 
L 381.935838 163.443243 
L 383.432425 148.670154 
L 384.929011 134.002215 
L 386.425598 119.799873 
L 387.922184 106.378837 
L 389.418771 93.984543 
L 390.915357 82.779244 
L 392.411943 72.841944 
L 393.90853 64.178425 
L 395.405116 56.73719 
L 396.901703 50.427206 
L 398.398289 45.1344 
L 399.894876 40.735173 
L 401.391462 37.106344 
L 402.888049 34.131714 
L 404.384635 31.705858 
L 405.881221 29.735821 
L 407.377808 28.141401 
L 408.874394 26.854539 
L 410.370981 25.818219 
L 411.867567 24.98516 
L 413.364154 24.316461 
L 414.86074 23.780316 
L 416.357326 23.350848 
L 417.853913 23.007088 
L 419.350499 22.732095 
L 420.847086 22.512217 
L 422.343672 22.336476 
L 423.840259 22.196054 
L 425.336845 22.08388 
L 426.833431 21.994289 
L 428.330018 21.922746 
L 429.826604 21.865622 
L 431.323191 21.820016 
L 432.819777 21.783608 
L 434.316364 21.754545 
" style="fill:none;stroke:#4daf4a;stroke-dasharray:1.5,2.475;stroke-dashoffset:0;stroke-width:1.5;"/>
   </g>
   <g id="patch_3">
    <path d="M 59.6 297.16 
L 59.6 8.64 
" style="fill:none;stroke:#000000;stroke-linecap:square;stroke-linejoin:miter;stroke-width:0.8;"/>
   </g>
   <g id="patch_4">
    <path d="M 452.16 297.16 
L 452.16 8.64 
" style="fill:none;stroke:#000000;stroke-linecap:square;stroke-linejoin:miter;stroke-width:0.8;"/>
   </g>
   <g id="patch_5">
    <path d="M 59.6 297.16 
L 452.16 297.16 
" style="fill:none;stroke:#000000;stroke-linecap:square;stroke-linejoin:miter;stroke-width:0.8;"/>
   </g>
   <g id="patch_6">
    <path d="M 59.6 8.64 
L 452.16 8.64 
" style="fill:none;stroke:#000000;stroke-linecap:square;stroke-linejoin:miter;stroke-width:0.8;"/>
   </g>
  </g>
 </g>
 <defs>
  <clipPath id="pb8b2c004a7">
   <rect height="288.52" width="392.56" x="59.6" y="8.64"/>
  </clipPath>
 </defs>
</svg>
